<svg width="115" height="32" viewBox="0 0 115 32" fill="none" xmlns="http://www.w3.org/2000/svg">
<g clip-path="url(#clip0_1_2)">
<path d="M17.355 0C14.2704 0 11.796 2.49263 11.796 5.52421H23.2191V23.6126C23.2191 26.0042 22.1344 28.2947 20.304 29.8442C18.4397 28.2947 17.3889 26.0042 17.3889 23.6126V10.4758C17.3889 10.4421 17.3889 10.4421 17.355 10.4421H17.2872C14.2026 10.4421 11.7282 12.9011 11.7282 15.9663V23.6126C11.7282 26.0716 10.6096 28.4295 8.6775 29.9453C6.7454 28.3958 5.62682 26.0716 5.62682 23.6126V5.52421C5.62682 2.49263 3.11848 0 0.0338965 0H0V23.4442C0 27.9242 3.55913 31.6968 8.06736 31.7979C8.27074 31.7979 8.47412 31.7979 8.6436 31.7979C8.81309 31.7979 9.05036 31.8316 9.21984 31.7979C11.2197 31.7305 13.1179 30.9895 14.5755 29.6421C16.1347 31.0905 18.2024 31.8316 20.3379 31.7642C20.4057 31.7642 20.4735 31.7642 20.5752 31.7642C25.1173 31.7642 28.7781 28.1263 28.812 23.6126V0H17.355Z" fill="url(#paint0_linear_1_2)"/>
<path d="M34.8457 0V5.52421H40.4386C40.4047 2.49263 37.8964 0 34.8457 0Z" fill="url(#paint1_linear_1_2)"/>
<path d="M50.3728 28.3577H49.3445L45.5398 15.2782C45.2313 14.1541 45.0257 13.3367 44.82 12.6214C44.7172 13.3367 44.5115 14.0519 44.3059 14.9716C44.1002 15.8913 42.7635 20.3874 40.5013 28.4599H39.473L34.8457 11.293H36.0796L39.0617 22.3289C39.1645 22.7376 39.2673 23.1463 39.3701 23.5551C39.473 23.9638 39.5758 24.2704 39.6786 24.5769C39.7815 24.8835 39.8843 25.19 39.8843 25.4966C39.9871 25.8031 39.9871 26.1097 40.0899 26.4162C40.2956 25.3944 40.7069 23.7594 41.3239 21.6136L44.2031 11.293H45.5398L48.9332 23.1463C49.3445 24.4747 49.653 25.5988 49.7558 26.4162C49.8586 25.9053 49.9614 25.2922 50.1671 24.6791C50.3728 24.066 51.5039 19.5699 53.7661 11.293H55L50.3728 28.3577Z" fill="#B3C5DD"/>
<path d="M64.4597 28.3577H60.8607V14.3585H56.2334V11.293H69.1898V14.2563H64.5625V28.3577H64.4597Z" fill="white"/>
<path d="M81.6322 28.3577H71.7607V11.293H81.6322V14.2563H75.3597V18.0371H81.2209V21.0005H75.3597V25.3944H81.6322V28.3577Z" fill="white"/>
<path d="M92.5313 14.1541C91.1946 14.1541 90.0635 14.6651 89.3437 15.6869C88.6239 16.7087 88.2126 18.1393 88.2126 19.9786C88.2126 23.7594 89.6521 25.7009 92.5313 25.7009C93.7653 25.7009 95.2049 25.3944 96.9529 24.7813V27.8468C95.5133 28.4599 93.9709 28.7665 92.2228 28.7665C89.755 28.7665 87.8012 28.0512 86.4645 26.5184C85.1277 24.9857 84.5107 22.8398 84.5107 20.0808C84.5107 18.3437 84.8192 16.7087 85.4362 15.3803C86.0532 14.0519 86.9786 13.0301 88.2126 12.3148C89.4465 11.5995 90.8861 11.293 92.5313 11.293C94.1766 11.293 95.8218 11.7017 97.5699 12.5192L96.4388 15.4825C95.8218 15.176 95.102 14.8694 94.4851 14.6651C93.7653 14.2563 93.1483 14.1541 92.5313 14.1541Z" fill="white"/>
<path d="M114.64 28.3577H111.041V21.0005H104.152V28.3577H100.553V11.293H104.152V17.9349H110.938V11.293H114.537V28.3577H114.64Z" fill="white"/>
</g>
<defs>
<linearGradient id="paint0_linear_1_2" x1="43.7338" y1="31.8129" x2="0" y2="31.8129" gradientUnits="userSpaceOnUse">
<stop stop-color="#58BD7D"/>
<stop offset="1" stop-color="#09A0BB"/>
</linearGradient>
<linearGradient id="paint1_linear_1_2" x1="40.4386" y1="0" x2="34.8457" y2="0" gradientUnits="userSpaceOnUse">
<stop stop-color="#58BD7D"/>
<stop offset="1" stop-color="#09A0BB"/>
</linearGradient>
<clipPath id="clip0_1_2">
<rect width="114.909" height="32" fill="white"/>
</clipPath>
</defs>
</svg>
